<svg width="50" height="50" viewBox="0 0 50 50" fill="none" xmlns="http://www.w3.org/2000/svg">
<path d="M35.0414 35.7752C35.0746 35.7728 35.108 35.7728 35.1412 35.7752H38.4592C38.5245 35.8464 38.5679 35.9349 38.584 36.0302C39.1761 37.8036 39.7715 39.5769 40.3702 41.3502L42.2712 47.0002C42.2712 47.0852 42.3311 47.1652 42.376 47.2802C42.4209 47.1702 42.4558 47.0952 42.4808 47.0202L44.5764 40.8352L46.208 36.0002C46.2379 35.9152 46.2728 35.8302 46.3078 35.7402H49.6258H49.7405C49.7554 35.7648 49.7656 35.7919 49.7705 35.8202C49.7705 40.4302 49.7705 45.0402 49.7705 49.6502C49.7739 49.6801 49.7739 49.7103 49.7705 49.7402C49.7705 49.7402 49.7356 49.7402 49.7206 49.7402H47.5801H47.4753C47.4753 49.6952 47.4753 49.6552 47.4753 49.6202C47.4753 49.5852 47.4753 49.4552 47.4753 49.3702C47.4753 45.8669 47.4753 42.3669 47.4753 38.8702C47.489 38.7607 47.4771 38.6494 47.4404 38.5452C47.2757 38.9452 47.166 39.3252 47.0362 39.6902C46.9065 40.0552 46.7818 40.4402 46.652 40.8152C46.5223 41.1902 46.4026 41.5502 46.2728 41.9152C46.1431 42.2802 46.0184 42.6602 45.8886 43.0352L45.5044 44.1602C45.3747 44.5352 45.25 44.9102 45.1202 45.2802C44.9905 45.6502 44.8658 46.0302 44.7361 46.4052C44.6063 46.7802 44.4866 47.1352 44.3569 47.5052C44.2271 47.8752 44.1024 48.2502 43.9727 48.6252C43.8429 49.0002 43.7182 49.3752 43.5935 49.7402C43.3989 49.7802 41.7274 49.7952 41.2135 49.7402C41.1336 49.6852 41.1236 49.5852 41.0987 49.5052L39.8314 45.9002L37.4464 38.9002C37.4464 38.8252 37.3915 38.7502 37.3566 38.6702C37.2917 38.6702 37.3166 38.7452 37.3166 38.7752C37.3166 38.8052 37.3166 38.9402 37.3166 39.0252V49.4702C37.3166 49.5702 37.3166 49.6652 37.3166 49.7702C37.2833 49.7852 37.248 49.7953 37.2119 49.8002H35.1063H35.0464C35.0319 49.7577 35.0202 49.7143 35.0115 49.6702C35.0115 49.6052 35.0115 49.5402 35.0115 49.4752V36.0952C34.9966 35.9877 35.0068 35.8781 35.0414 35.7752Z" fill="black"/>
<path d="M8.87138 49.2748L8.87137 49.2748L8.86471 49.2765C8.04363 49.4911 7.19102 49.5575 6.34673 49.4728L6.34674 49.4727L6.3389 49.472C5.53415 49.404 4.74841 49.19 4.02 48.8403C3.28693 48.4818 2.63302 47.9795 2.09706 47.3631C1.56073 46.7463 1.15344 46.0277 0.899404 45.25L0.899442 45.25L0.897405 45.244C0.598968 44.368 0.464124 43.4444 0.499641 42.5195L0.499723 42.5195L0.499906 42.5104C0.516524 41.6904 0.674276 40.8795 0.966196 40.1133L0.966343 40.1133L0.970516 40.1015C1.32873 39.0854 1.9512 38.1837 2.77347 37.4896C3.59573 36.7955 4.58795 36.3342 5.64754 36.1531L5.65672 36.1516L5.66584 36.1496C6.90586 35.8899 8.19339 35.9786 9.3863 36.406L9.38629 36.406L9.39204 36.408C10.2734 36.7117 11.0728 37.2158 11.7276 37.8807C12.3824 38.5457 12.8749 39.3536 13.1663 40.2412L13.1662 40.2413L13.1698 40.2516C13.3849 40.8615 13.5134 41.4988 13.5514 42.1446L13.5519 42.1542L13.5529 42.1637C13.5716 42.3564 13.5857 42.5677 13.5906 42.6754C13.6089 43.8399 13.3576 44.9929 12.8564 46.0437C12.4697 46.8425 11.9123 47.546 11.2238 48.1044C10.5349 48.663 9.73172 49.0626 8.87138 49.2748ZM2.11003 41.0319L2.11002 41.0319L2.10936 41.0345C1.91678 41.8083 1.85672 42.6092 1.93172 43.4031C1.98493 44.0892 2.15305 44.7614 2.42906 45.3916C2.68726 46.0124 3.0731 46.5718 3.56153 47.0335C4.05082 47.4959 4.63205 47.8497 5.26724 48.0718C6.02264 48.3405 6.82962 48.4315 7.62571 48.3377C8.51891 48.2574 9.37239 47.9306 10.0914 47.3937C10.8122 46.8554 11.3695 46.127 11.7011 45.29C12.0421 44.4357 12.2069 43.5211 12.1854 42.6014C12.1807 42.2218 12.1414 41.8434 12.0677 41.471C11.9557 40.7942 11.7212 40.1436 11.3756 39.5513C11.0648 39.0015 10.6464 38.5202 10.1454 38.1362C9.64375 37.7517 9.06969 37.4728 8.45766 37.3162C7.55856 37.0813 6.61441 37.0811 5.71522 37.3155C4.64264 37.5781 3.69657 38.2102 3.04229 39.1009C2.6053 39.6753 2.28826 40.3321 2.11003 41.0319Z" fill="black" stroke="black"/>
<path d="M50 7.15004C50.0215 8.31222 49.7917 9.46528 49.3264 10.53C48.9105 11.4839 48.2734 12.3245 47.4681 12.9819C46.6628 13.6394 45.7125 14.0947 44.6962 14.31C43.3112 14.6512 41.8573 14.5835 40.51 14.115C39.5309 13.7938 38.6416 13.2449 37.9149 12.5132C37.1882 11.7814 36.6446 10.8877 36.3287 9.90504C36.0252 8.9972 35.8883 8.04178 35.9246 7.08504C35.935 6.22524 36.0833 5.3727 36.3637 4.56004C36.7403 3.438 37.4102 2.4376 38.3034 1.66291C39.1967 0.888223 40.2808 0.367545 41.443 0.155044C42.7724 -0.122799 44.1523 -0.0329226 45.4346 0.415044C46.3952 0.73898 47.2673 1.28266 47.9818 2.00299C48.6963 2.72332 49.2335 3.60051 49.551 4.56504C49.7832 5.20858 49.9227 5.88203 49.9651 6.56504C49.9801 6.80004 49.995 7.03004 50 7.15004ZM47.6051 7.27004C47.6051 7.00004 47.5701 6.72504 47.5402 6.45504C47.4762 5.79789 47.2901 5.15855 46.9913 4.57004C46.7364 4.04153 46.3752 3.57151 45.9305 3.18948C45.4857 2.80746 44.967 2.52167 44.4068 2.35004C43.703 2.13325 42.9597 2.07688 42.2313 2.18504C41.1398 2.31857 40.143 2.87271 39.4522 3.73004C38.9475 4.35316 38.6047 5.09181 38.4543 5.88004C38.308 6.5581 38.2709 7.25525 38.3445 7.94504C38.4143 8.62968 38.6088 9.29569 38.9183 9.91004C39.3883 10.9058 40.2254 11.6801 41.2534 12.07C41.9482 12.3337 42.6948 12.4313 43.4338 12.355C44.0921 12.3036 44.731 12.1072 45.3049 11.78C46.1749 11.2608 46.838 10.4549 47.1809 9.50004C47.4558 8.78855 47.5995 8.03297 47.6051 7.27004Z" fill="black"/>
<path d="M8.26268 7.99992L8.50218 8.10992C9.16201 8.38786 9.69052 8.90853 9.97908 9.56492C10.1299 9.89413 10.2421 10.2398 10.3134 10.5949C10.5595 11.7349 10.8024 12.8716 11.0418 14.0049C11.0418 14.0949 11.0768 14.1799 11.0917 14.2849C11.051 14.2971 11.0093 14.3055 10.967 14.3099H8.77162H8.70176C8.70176 14.2599 8.65686 14.1999 8.64189 14.1399C8.44231 13.1899 8.24106 12.2399 8.03816 11.2899C7.98826 11.0449 7.91841 10.7899 7.85354 10.5699C7.83884 10.5148 7.81879 10.4612 7.79367 10.4099C7.65361 9.98792 7.39595 9.6149 7.05114 9.33493C6.70633 9.05496 6.28876 8.87972 5.84776 8.82992C5.57821 8.79254 5.30656 8.7725 5.03446 8.76992H2.96381C2.87854 8.75387 2.79035 8.76801 2.71434 8.80992C2.6844 9.06492 2.71434 9.30992 2.71434 9.58992V14.2949C2.67172 14.3062 2.62838 14.3146 2.58461 14.3199H0.444103C0.407577 14.323 0.370858 14.323 0.334333 14.3199V14.1749C0.331834 14.1266 0.331834 14.0782 0.334333 14.0299V0.589918C0.334333 0.489918 0.334333 0.394918 0.334333 0.284918C0.404122 0.280678 0.474104 0.280678 0.543893 0.284918H6.18704C6.84566 0.277725 7.5011 0.377345 8.12797 0.579918C8.49562 0.700865 8.84612 0.868924 9.17078 1.07992C9.89975 1.55136 10.432 2.27317 10.6676 3.10992C10.8921 3.89241 10.8921 4.72243 10.6676 5.50492C10.5362 5.98803 10.3047 6.43802 9.98841 6.82565C9.67207 7.21329 9.2779 7.5299 8.83149 7.75492C8.74667 7.80492 8.65686 7.84492 8.56705 7.88992L8.26268 7.99992ZM2.71434 6.65992H6.34172C6.60492 6.64956 6.86458 6.59549 7.1101 6.49992C7.41438 6.39135 7.6871 6.20895 7.90389 5.96902C8.12068 5.72909 8.2748 5.43909 8.3525 5.12492C8.41737 4.87716 8.43764 4.6198 8.41237 4.36492C8.39377 3.97553 8.26202 3.60007 8.03332 3.28472C7.80461 2.96936 7.48892 2.72787 7.12507 2.58992C6.835 2.47135 6.52524 2.40859 6.21199 2.40492H2.99375C2.90784 2.38934 2.81924 2.39979 2.73928 2.43492C2.70436 2.67992 2.68939 4.93492 2.73928 6.46992C2.69937 6.49992 2.70935 6.56992 2.71434 6.65992Z" fill="black"/>
</svg>
